<svg width="400" height="60" viewBox="0 0 400 60" fill="none" xmlns="http://www.w3.org/2000/svg">
<g clip-path="url(#clip0_2_81)">
<path d="M226.519 10.5199L232.59 10.52C235.943 15.0063 239.36 19.8443 242.64 24.3992L245.385 28.2189C245.749 28.7237 246.517 29.835 246.916 30.2369V10.52H253.314V40.6212C252.893 40.7716 247.854 40.6774 247.143 40.6746L232.915 20.9691L232.914 40.6746H226.51L226.519 10.5199Z" fill="white"/>
<path d="M352.416 9.82827C352.546 9.81636 352.678 9.80883 352.808 9.80585C358.75 9.67592 363.378 11.325 367.658 15.4453C366.368 16.7132 364.563 18.2309 363.185 19.4603C362.42 18.6922 361.266 17.8136 360.346 17.2571C357.209 15.3902 353.463 14.8479 349.93 15.7487C347.126 16.4577 344.596 18.1423 343.102 20.665C341.811 22.8249 341.432 25.4147 342.05 27.8572C343.846 34.9061 352.792 37.6901 358.94 34.8428C360.746 34.0059 361.894 32.4908 362.867 30.8246H353.191V25.4842C353.41 25.2669 357.974 25.3548 358.579 25.355L370.053 25.3604C370.125 29.5181 369.204 32.5832 366.562 35.8246C360.551 43.2023 347.584 43.1227 340.613 37.0291C337.564 34.4034 335.678 30.6667 335.37 26.6415C334.793 18.11 341.058 11.6829 349.144 10.2027C350.275 9.99559 351.266 9.90563 352.416 9.82827Z" fill="white"/>
<path d="M116.938 41.832H110.315C109.427 39.8569 108.538 37.6135 107.686 35.6054H94.0898L91.334 41.832H84.7236C85.9463 38.6399 87.7283 34.7761 89.0918 31.5859L97.6113 11.6738H104.04L116.938 41.832ZM97.9551 26.4873C97.5065 27.5346 96.8611 28.9291 96.4746 29.9756H105.271C104.818 28.9092 101.089 19.9937 100.831 19.7744L97.9551 26.4873Z" fill="white"/>
<path d="M387.092 10.5195C388.498 13.5939 389.885 17.036 391.223 20.166L400 40.6748H393.385C392.486 38.6934 391.615 36.5013 390.771 34.4824H377.149C376.469 36.2621 375.211 38.8631 374.407 40.6748H367.781C369.097 37.9382 370.552 34.2153 371.792 31.3125L380.692 10.5195H387.092ZM379.534 28.8398H388.327C387.937 27.8904 384.128 18.8122 383.897 18.6015L379.534 28.8398Z" fill="white"/>
<path d="M266.801 17.8631C273.348 17.4119 280.257 21.0342 281.175 28.0613C281.563 30.9952 280.766 33.9637 278.962 36.3016C276.786 39.1401 273.602 40.7044 270.113 41.1629C270.055 41.1734 269.997 41.1817 269.938 41.1893C263.37 42.0123 256.347 37.9779 255.456 31.0301C255.064 28.0929 255.865 25.1204 257.68 22.7859C259.953 19.8334 263.179 18.3229 266.801 17.8631ZM274.881 28.7781C274.461 25.1286 271.181 22.5114 267.553 22.9305C263.921 23.3501 261.314 26.655 261.734 30.3094C262.155 33.9638 265.443 36.5818 269.075 36.1551C272.702 35.7289 275.301 32.4274 274.881 28.7781Z" fill="white"/>
<path d="M175.305 17.8653C176.145 17.7115 177.835 17.816 178.708 17.9005C185.602 18.5671 190.611 24.0698 189.817 31.1524H169.924C170.707 34.4108 173.038 36.1021 176.324 36.295C178.989 36.4516 180.947 35.8314 183.022 34.1212L184.101 34.5899L188.245 36.3653C185.905 39.2595 183.206 40.7052 179.514 41.1339C175.557 41.5933 171.412 41.0431 168.208 38.5001C165.855 36.6458 164.344 33.9144 164.018 30.9249C163.649 27.8985 164.505 24.8499 166.392 22.464C168.66 19.5937 171.761 18.2698 175.305 17.8653ZM183.677 26.754C182.324 23.4286 179.2 22.238 175.805 22.6183C172.968 23.0071 171.494 24.2341 170.206 26.754H183.677Z" fill="white"/>
<path d="M311.975 9.79324H318.155V20.6463C320.384 18.9262 322.58 17.8316 325.444 17.8C329.193 17.7586 332.849 19.7272 333.666 23.6671C334.12 25.8594 333.951 28.4549 333.95 30.7258L333.947 40.6746H327.731V31.96C327.737 29.6824 327.965 25.4932 326.298 23.8865C323.868 21.5454 319.205 23.6331 318.502 26.7775C317.999 29.026 318.149 31.2063 318.149 33.4344L318.155 40.6746H311.975V9.79324Z" fill="white"/>
<path d="M7.43945 44.1967C12.0277 35.4462 27.8824 6.82671 36.4238 4.15251C37.4626 3.82725 38.6059 3.8669 39.5758 4.39358C41.8135 5.60883 55.6776 28.3201 57.9705 31.7749C59.6847 34.3576 61.6139 36.8187 63.4617 39.3058C65.2493 41.712 66.8788 44.2816 69.2962 46.1124C71.0598 47.4479 72.9692 48.0322 75.1215 48.4113C69.5251 49.9418 63.6481 43.8099 60.2325 40.1499C58.0609 37.8661 56.0005 35.478 54.0584 32.9938C48.4256 25.6737 43.4433 17.0358 38.5621 9.16439C38.4292 8.95015 37.7899 7.79202 37.5634 7.76674C37.4856 7.75806 37.4 7.7618 37.324 7.78072C36.9472 7.87448 36.4734 8.22864 36.1412 8.43752C29.8414 12.3974 18.3335 29.0949 13.7506 35.6838L7.74657 44.2916L7.43945 44.1967Z" fill="white"/>
<path d="M125.997 17.8643C130.631 17.2838 136.13 19.0301 138.985 22.8938L133.812 25.4685C130.984 22.5747 126.524 22.1505 123.043 24.0965C120.003 25.7956 118.945 29.8855 120.715 32.8715C121.64 34.4311 123.184 35.4333 124.936 35.8569C127.646 36.489 130.923 36.135 133.101 34.2772C133.359 34.0571 133.537 33.7981 133.831 33.6192L133.993 33.7027C135.316 34.4044 137.396 35.7865 138.732 36.6126C138.285 37.0962 137.844 37.5612 137.35 37.9962C132.328 42.4173 122.889 42.3206 117.755 38.1782C115.458 36.3593 113.989 33.6831 113.683 30.7581C113.375 27.892 114.211 25.0201 116.008 22.7744C118.536 19.6169 122.099 18.2821 125.997 17.8643Z" fill="white"/>
<path d="M150.855 17.866C151.533 17.7686 153.4 17.7908 154.103 17.865C158.276 18.3052 161.211 19.6696 163.888 22.8716C162.365 23.7139 160.307 24.6613 158.712 25.4542C156.119 23.0973 153.689 22.5024 150.276 23.1779C143.053 24.5964 142.759 34.6591 150.308 35.962C153.384 36.4927 156.388 35.9542 158.672 33.6503L158.875 33.6786L163.606 36.6157C160.974 39.4513 158.522 40.6505 154.669 41.1531C147.673 42.066 139.415 38.7361 138.574 30.8152C138.245 27.9173 139.087 25.0081 140.912 22.7415C143.411 19.6279 147.005 18.2758 150.855 17.866Z" fill="white"/>
<path d="M197.09 17.8577C197.673 17.81 198.257 17.7961 198.842 17.816C201.978 17.9106 204.336 19.2566 206.436 21.5C205.16 22.5913 203.874 23.8485 202.589 24.9773C201.401 23.983 200.133 23.0127 198.52 22.9408C197.687 22.9037 196.151 23.0852 196.106 24.2144C196.09 24.5246 196.346 25.0184 196.606 25.1823C200.293 27.5064 206.804 28.627 206.88 34.1761C206.945 38.9679 202.543 41.1863 198.261 41.2583C197.902 41.2607 197.542 41.2557 197.184 41.2432C193.934 41.1235 191.488 39.8132 189.315 37.4568C190.496 36.2221 191.92 34.8856 193.15 33.6738C193.381 33.8981 193.619 34.1135 193.867 34.3192C195.157 35.3961 196.961 36.4453 198.647 36.2319C201.574 35.8614 201.928 33.8584 199.303 32.5009C198.094 31.8756 196.776 31.3145 195.573 30.7247C194.739 30.3183 193.941 29.8405 193.188 29.2966C191.856 28.3162 190.486 26.8055 190.308 25.1023C189.845 20.711 193.296 18.4037 197.09 17.8577Z" fill="white"/>
<path d="M215.169 17.8607C219.034 17.5784 221.887 18.6126 224.53 21.483L220.695 25.0061C219.206 23.5515 216.273 21.9766 214.464 23.5773C213.264 24.912 216.266 26.0407 216.959 26.3589C220.324 27.9038 224.877 29.6986 225.005 34.0653C225.048 35.7755 224.412 37.4325 223.239 38.6704C221.467 40.5306 218.892 41.2045 216.409 41.2585C216.089 41.2595 215.768 41.2562 215.448 41.2487C212.061 41.1615 209.704 39.8704 207.428 37.4608L211.248 33.6601C211.567 33.9883 211.908 34.2938 212.27 34.5744C213.884 35.8455 217.07 37.2238 218.968 35.2658C219.124 35.1051 219.23 34.6584 219.169 34.4227C218.627 32.3512 215.392 31.7706 213.773 30.7697C211.543 29.6604 208.695 27.8009 208.396 25.0395C207.93 20.7134 211.479 18.4002 215.169 17.8607Z" fill="white"/>
<path d="M25.2888 44.6531C31.9954 44.4343 39.1118 45.1835 45.807 45.7887C49.8318 46.1525 54.403 47.3993 58.3391 48.4007L69.2404 51.1969C73.6281 52.292 78.0359 53.3037 82.4616 54.2313C87.9852 55.4128 93.7583 56.6512 99.4351 56.4758C99.9665 56.4595 100.398 56.2263 100.956 56.2429C99.4726 57.1406 95.5289 57.2993 93.7786 57.2595C84.9435 57.0589 76.1143 55.5224 67.4957 53.6556C67.483 53.6501 67.4701 53.6447 67.4573 53.6392C62.6866 52.8623 58.024 51.3964 53.3102 50.3538C41.2577 47.6878 24.2832 45.2244 12.2792 49.191C6.21952 51.1934 2.82934 54.3569 0 60C1.69569 49.8715 13.5591 45.5153 22.4465 44.866C23.3955 44.7966 24.3423 44.7619 25.2888 44.6531Z" fill="#22A8E0"/>
<path d="M300.91 10.1674H307.073V18.3887H310.799V23.1821H307.073V40.1676C307.068 40.4928 307.117 40.4278 306.949 40.6472C305.521 40.7796 302.457 40.6792 300.91 40.6746V23.1821H297.744V18.3887H300.91V10.1674Z" fill="white"/>
<path d="M62.6262 9.83945C62.7921 9.82418 62.9602 9.81366 63.1269 9.81951C70.186 10.0671 74.5977 24.9493 77.0651 30.5074C78.882 34.6 81.8232 40.6968 84.8559 43.9228C85.4358 44.5397 86.1435 45.0455 86.8307 45.5335C89.7692 47.6205 92.6528 48.114 96.1778 48.2083C91.5075 49.5134 87.3864 49.1735 83.5399 46.0898C82.869 45.5519 82.142 45.0237 81.4583 44.494C80.4051 43.5986 79.5581 42.515 78.6835 41.4491C77.5223 40.034 76.4146 38.5973 75.4639 37.0266C72.9312 32.8423 71.1823 27.643 69.334 23.0832C68.2071 20.303 67.1037 17.4513 65.2269 15.0791C64.6651 14.3688 63.7238 13.1982 62.772 13.1095C60.8113 12.927 53.8373 20.1092 52.0127 21.6428C53.9807 18.1845 57.245 12.6995 60.6424 10.5132C61.1614 10.1793 62.0231 10.0291 62.6262 9.83945Z" fill="#8CC540"/>
<path d="M293.063 17.8463C294.461 17.7326 295.301 17.8453 296.594 18.4011C295.966 19.9962 295.328 21.5872 294.68 23.1741C288.851 20.9308 289.509 29.0348 289.508 32.4993L289.509 40.6746H284.924H283.314V18.3887H288.699L288.7 21.0935C288.748 21.0121 288.798 20.9316 288.849 20.8516C289.991 19.0627 291.023 18.295 293.063 17.8463Z" fill="white"/>
<path d="M50.3377 0.165846C53.7426 -0.628674 57.142 1.50819 57.925 4.93522C58.7079 8.36225 56.577 11.7778 53.1689 12.5585C49.7705 13.3371 46.387 11.2008 45.6063 7.78349C44.8256 4.36618 46.9423 0.958121 50.3377 0.165846Z" fill="#FAA638"/>
<path d="M7.74654 44.2916C7.33077 44.9314 7.11338 45.2647 6.60365 45.8408L6.56836 45.7838C6.86443 45.1733 7.05688 44.7653 7.43942 44.1967L7.74654 44.2916Z" fill="#55B47F"/>
</g>
<defs>
<clipPath id="clip0_2_81">
<rect width="400" height="60" fill="white"/>
</clipPath>
</defs>
</svg>
