<svg width="24" height="24" viewBox="0 0 24 24" fill="none" xmlns="http://www.w3.org/2000/svg">
<path d="M12 18C11.0667 18 10.175 18.146 9.325 18.438C8.475 18.73 7.7 19.1673 7 19.75V20H17V19.75C16.3 19.1667 15.525 18.7293 14.675 18.438C13.825 18.1467 12.9333 18.0007 12 18ZM15.225 16.525C16.225 16.875 17.15 17.3667 18 18V4H6V18C6.85 17.3667 7.775 16.875 8.775 16.525C9.775 16.175 10.85 16 12 16C13.15 16 14.225 16.175 15.225 16.525ZM10.938 11.563C10.646 11.271 10.5 10.9167 10.5 10.5C10.5 10.0833 10.646 9.72933 10.938 9.438C11.23 9.14667 11.584 9.00067 12 9C12.416 8.99933 12.7703 9.14533 13.063 9.438C13.3557 9.73067 13.5013 10.0847 13.5 10.5C13.4987 10.9153 13.353 11.2697 13.063 11.563C12.773 11.8563 12.4187 12.002 12 12C11.5813 11.998 11.2273 11.8523 10.938 11.563ZM6 22C5.45 22 4.97933 21.8043 4.588 21.413C4.19667 21.0217 4.00067 20.5507 4 20V4C4 3.45 4.196 2.97933 4.588 2.588C4.98 2.19667 5.45067 2.00067 6 2H18C18.55 2 19.021 2.196 19.413 2.588C19.805 2.98 20.0007 3.45067 20 4V20C20 20.55 19.8043 21.021 19.413 21.413C19.0217 21.805 18.5507 22.0007 18 22H6ZM14.475 12.975C15.1583 12.2917 15.5 11.4667 15.5 10.5C15.5 9.53333 15.1583 8.70833 14.475 8.025C13.7917 7.34167 12.9667 7 12 7C11.0333 7 10.2083 7.34167 9.525 8.025C8.84167 8.70833 8.5 9.53333 8.5 10.5C8.5 11.4667 8.84167 12.2917 9.525 12.975C10.2083 13.6583 11.0333 14 12 14C12.9667 14 13.7917 13.6583 14.475 12.975Z" fill="white"/>
</svg>
