<svg width="24" height="24" viewBox="0 0 24 24" fill="none" xmlns="http://www.w3.org/2000/svg">
<path d="M11 21V13.725C10.7 13.5417 10.4583 13.3043 10.275 13.013C10.0917 12.7217 10 12.384 10 12C10 11.45 10.196 10.9793 10.588 10.588C10.98 10.1967 11.4507 10.0007 12 10C12.5493 9.99933 13.0203 10.1953 13.413 10.588C13.8057 10.9807 14.0013 11.4513 14 12C14 12.3833 13.9083 12.725 13.725 13.025C13.5417 13.325 13.3 13.5583 13 13.725V21C13 21.2833 12.904 21.521 12.712 21.713C12.52 21.905 12.2827 22.0007 12 22C11.7173 21.9993 11.48 21.9033 11.288 21.712C11.096 21.5207 11 21.2833 11 21ZM5.825 18.525C5.625 18.725 5.38333 18.825 5.1 18.825C4.81667 18.825 4.58334 18.7167 4.4 18.5C3.65 17.6167 3.06233 16.625 2.637 15.525C2.21167 14.425 1.99933 13.25 2 12C2 10.6167 2.26267 9.31667 2.788 8.1C3.31334 6.88334 4.02567 5.825 4.925 4.925C5.82434 4.025 6.88267 3.31267 8.1 2.788C9.31734 2.26333 10.6173 2.00067 12 2C13.3827 1.99933 14.6827 2.262 15.9 2.788C17.1173 3.314 18.1757 4.02633 19.075 4.925C19.9743 5.82367 20.687 6.882 21.213 8.1C21.739 9.318 22.0013 10.618 22 12C22 13.25 21.7873 14.425 21.362 15.525C20.9367 16.625 20.3493 17.6167 19.6 18.5C19.4167 18.7167 19.1877 18.8293 18.913 18.838C18.6383 18.8467 18.4007 18.7507 18.2 18.55C18.0167 18.3667 17.925 18.1333 17.925 17.85C17.925 17.5667 18.0167 17.3167 18.2 17.1C18.7667 16.4 19.2083 15.6167 19.525 14.75C19.8417 13.8833 20 12.9667 20 12C20 9.76667 19.225 7.875 17.675 6.325C16.125 4.775 14.2333 4 12 4C9.76667 4 7.875 4.775 6.325 6.325C4.775 7.875 4 9.76667 4 12C4 12.9667 4.15833 13.8793 4.475 14.738C4.79167 15.5967 5.24167 16.3757 5.825 17.075C6.00833 17.2917 6.104 17.5377 6.112 17.813C6.12 18.0883 6.02433 18.3257 5.825 18.525ZM8.65 15.7C8.45 15.9 8.20833 16.0043 7.925 16.013C7.64167 16.0217 7.41667 15.909 7.25 15.675C6.86667 15.1583 6.56233 14.5917 6.337 13.975C6.11167 13.3583 5.99933 12.7 6 12C6 10.3333 6.58333 8.91667 7.75 7.75C8.91667 6.58333 10.3333 6 12 6C13.6667 6 15.0833 6.58333 16.25 7.75C17.4167 8.91667 18 10.3333 18 12C18 12.7 17.8877 13.3627 17.663 13.988C17.4383 14.6133 17.134 15.1757 16.75 15.675C16.5833 15.8917 16.3583 16.0043 16.075 16.013C15.7917 16.0217 15.55 15.9257 15.35 15.725C15.1667 15.5417 15.071 15.3083 15.063 15.025C15.055 14.7417 15.134 14.4833 15.3 14.25C15.5167 13.9167 15.6877 13.5627 15.813 13.188C15.9383 12.8133 16.0007 12.4173 16 12C16 10.9 15.6083 9.95833 14.825 9.175C14.0417 8.39167 13.1 8 12 8C10.9 8 9.95833 8.39167 9.175 9.175C8.39167 9.95833 8 10.9 8 12C8 12.4333 8.06267 12.8333 8.188 13.2C8.31333 13.5667 8.484 13.9167 8.7 14.25C8.86667 14.4833 8.946 14.7377 8.938 15.013C8.93 15.2883 8.834 15.5173 8.65 15.7Z" fill="white"/>
</svg>
