<svg width="24" height="24" viewBox="0 0 24 24" fill="none" xmlns="http://www.w3.org/2000/svg">
<path d="M9.05 18.95L5.05 14.95C5 15.5833 4.98767 16.2417 5.013 16.925C5.03834 17.6083 5.10067 18.2167 5.2 18.75C5.58334 18.8667 6.16267 18.9417 6.938 18.975C7.71334 19.0083 8.41734 19 9.05 18.95ZM11.45 18.55C12.4333 18.3333 13.3167 18.025 14.1 17.625C14.8833 17.225 15.5667 16.7333 16.15 16.15C16.7167 15.5833 17.2 14.9127 17.6 14.138C18 13.3633 18.3167 12.484 18.55 11.5L12.5 5.45C11.55 5.68333 10.6917 6.00433 9.925 6.413C9.15834 6.82167 8.48334 7.31733 7.9 7.9C7.31667 8.48267 6.821 9.162 6.413 9.938C6.005 10.714 5.684 11.5847 5.45 12.55L11.45 18.55ZM9.9 15.5L8.5 14.1L14.1 8.5L15.5 9.9L9.9 15.5ZM18.95 9.1C19.0167 8.45 19.0377 7.775 19.013 7.075C18.9883 6.375 18.9173 5.76667 18.8 5.25C18.4167 5.11667 17.8377 5.03333 17.063 5C16.2883 4.96667 15.584 4.98333 14.95 5.05L18.95 9.1ZM7.75 21C6.8 21 5.93334 20.929 5.15 20.787C4.36667 20.645 3.88334 20.4827 3.7 20.3C3.51667 20.1 3.354 19.6 3.212 18.8C3.07 18 2.99934 17.1167 3 16.15C3 14.1667 3.3 12.3293 3.9 10.638C4.5 8.94667 5.35 7.55067 6.45 6.45C7.55 5.34933 8.95834 4.49933 10.675 3.9C12.3917 3.30067 14.25 3.00067 16.25 3C17.2167 3 18.0877 3.071 18.863 3.213C19.6383 3.355 20.1173 3.51733 20.3 3.7C20.4833 3.9 20.646 4.4 20.788 5.2C20.93 6 21.0007 6.9 21 7.9C21 9.85 20.7 11.671 20.1 13.363C19.5 15.055 18.65 16.4507 17.55 17.55C16.4667 18.6333 15.0667 19.4793 13.35 20.088C11.6333 20.6967 9.76667 21.0007 7.75 21Z" fill="white"/>
</svg>
